<svg preserveAspectRatio="none" width="100%" height="100%" overflow="visible" style="display: block;" viewBox="0 0 130.362 139" fill="none" xmlns="http://www.w3.org/2000/svg">
<g id="Group">
<path id="Vector" d="M5.42817 43.6653C4.29899 43.6596 3.1991 43.3054 2.27876 42.651C1.35842 41.9966 0.662525 41.0739 0.286141 40.0091C-0.664282 37.1653 0.826338 34.1875 3.66948 33.1028C14.0957 29.4466 24.656 26.6028 34.9441 24.7097C45.3703 22.9466 55.6584 22 65.9466 22C76.1006 22 86.3928 22.9466 96.4088 24.8437C106.56 26.7867 116.526 29.596 126.197 33.2409C129.04 34.3216 130.393 37.4375 129.308 40.2812C129.066 40.9439 128.693 41.5515 128.213 42.0683C127.732 42.5851 127.154 43.0008 126.511 43.291C125.867 43.5813 125.173 43.7401 124.468 43.7584C123.762 43.7766 123.061 43.6538 122.403 43.3972C113.314 39.9496 103.935 37.3202 94.378 35.5403C85.0362 33.6472 75.4264 32.8347 65.9466 32.8347C56.3367 32.8347 46.5888 33.7812 36.9749 35.4062C27.227 37.1653 17.2069 39.875 7.32496 43.2591C6.64666 43.5312 6.10646 43.6653 5.42817 43.6653Z" fill="#151515"/>
<path id="Vector_2" d="M6.10884 21.6653C4.97965 21.6596 3.87976 21.3054 2.95942 20.651C2.03909 19.9966 1.34319 19.0739 0.966805 18.0091C0.0163818 15.1653 1.507 12.1875 4.35015 11.1028C14.7764 7.44656 25.3366 4.60281 35.6247 2.70969C46.051 0.946562 56.3391 0 66.6272 0C76.7813 0 87.0735 0.946562 97.0895 2.84375C107.24 4.78669 117.206 7.59603 126.878 11.2409C129.721 12.3216 131.073 15.4375 129.989 18.2812C129.746 18.9439 129.374 19.5515 128.893 20.0683C128.413 20.5851 127.834 21.0008 127.191 21.291C126.548 21.5813 125.854 21.7401 125.148 21.7584C124.443 21.7766 123.741 21.6538 123.084 21.3972C113.994 17.9496 104.615 15.3202 95.0587 13.5403C85.7169 11.6472 76.1071 10.8347 66.6272 10.8347C57.0174 10.8347 47.2695 11.7812 37.6556 13.4062C27.9076 15.1653 17.8876 17.875 8.00562 21.2591C7.32733 21.5312 6.78713 21.6653 6.10884 21.6653Z" fill="#151515"/>
<path id="Vector_3" d="M86.3928 68.5847H43.2013C40.2242 68.5847 37.7872 66.1472 37.7872 63.1653C37.7872 60.1875 40.2242 57.75 43.2013 57.75H86.2547C89.2359 57.75 91.6729 60.1875 91.6729 63.1653C91.6729 66.1472 89.37 68.5847 86.3928 68.5847Z" fill="#151515"/>
<path id="Vector_4" d="M64.8661 92.0087C57.4171 92.0087 49.838 91.4684 42.5271 90.2496C39.5459 89.7093 37.515 86.9996 38.0593 84.0218C38.5995 81.0399 41.3086 79.0087 44.2858 79.5531C57.9613 81.7184 71.9049 81.7184 85.8485 79.5531C88.8298 79.1468 91.5348 81.0399 92.0791 84.0218C92.4852 86.9996 90.5884 89.7093 87.6113 90.2496C79.8942 91.3343 72.3111 92.0087 64.8661 92.0087Z" fill="#151515"/>
<path id="Vector_5" d="M64.8661 114.759C57.283 114.759 49.5659 113.812 41.8488 111.781C39.0057 110.969 37.247 108.125 37.9212 105.147C38.5995 102.303 41.5767 100.54 44.5579 101.219C51.3246 102.978 58.0953 103.79 64.8661 103.79C71.6328 103.79 78.4035 102.844 85.1743 101.219C88.0174 100.406 90.9946 102.165 91.8069 105.147C92.1458 106.547 91.9249 108.024 91.1913 109.263C90.4577 110.502 89.2693 111.406 87.8793 111.781C80.1622 113.678 72.4451 114.759 64.8661 114.759Z" fill="#151515"/>
<path id="Vector_6" d="M65.1342 139C57.149 139 49.0257 136.969 40.9024 133.04C40.2603 132.722 39.6874 132.281 39.2168 131.74C38.7462 131.2 38.3873 130.572 38.1607 129.892C37.9342 129.212 37.8444 128.494 37.8967 127.779C37.949 127.065 38.1423 126.367 38.4655 125.728C39.818 123.022 43.0673 121.937 45.6383 123.29C52.1369 126.54 58.6355 128.165 64.8661 128.165H65.0001C71.2266 128.165 77.7252 126.54 83.9558 123.428C86.6608 122.071 89.9101 123.156 91.1286 125.866C91.4518 126.505 91.645 127.203 91.6973 127.917C91.7496 128.632 91.6599 129.35 91.4334 130.03C91.2068 130.71 90.8479 131.338 90.3773 131.878C89.9067 132.419 89.3338 132.861 88.6917 133.178C80.9745 137.103 73.1234 139 65.1342 139Z" fill="#151515"/>
</g>
</svg>
